<mxfile host="app.diagrams.net" agent="Mozilla/5.0 (Windows NT 10.0; Win64; x64) AppleWebKit/537.36 (KHTML, like Gecko) Chrome/128.0.0.0 Safari/537.36" version="24.7.12">
  <diagram name="PÃ¡gina-1" id="v1lBeHiBDdKWZP2saad8">
    <mxGraphModel dx="880" dy="434" grid="0" gridSize="10" guides="1" tooltips="1" connect="1" arrows="1" fold="1" page="1" pageScale="1" pageWidth="827" pageHeight="1169" math="0" shadow="0">
      <root>
        <mxCell id="0" />
        <mxCell id="1" parent="0" />
        <mxCell id="Qj9sbOqrbZrZobzI3Ule-12" value="" style="edgeStyle=orthogonalEdgeStyle;rounded=0;orthogonalLoop=1;jettySize=auto;html=1;" parent="1" source="Qj9sbOqrbZrZobzI3Ule-1" target="Qj9sbOqrbZrZobzI3Ule-3" edge="1">
          <mxGeometry relative="1" as="geometry" />
        </mxCell>
        <mxCell id="Qj9sbOqrbZrZobzI3Ule-1" value="&lt;b&gt;&lt;font style=&quot;font-size: 14px;&quot;&gt;Inicio&lt;/font&gt;&lt;/b&gt;" style="strokeWidth=2;html=1;shape=mxgraph.flowchart.terminator;whiteSpace=wrap;" parent="1" vertex="1">
          <mxGeometry x="356" y="32" width="100" height="60" as="geometry" />
        </mxCell>
        <mxCell id="Qj9sbOqrbZrZobzI3Ule-2" value="&lt;b&gt;&lt;font style=&quot;font-size: 14px;&quot;&gt;Fin&lt;/font&gt;&lt;/b&gt;" style="strokeWidth=2;html=1;shape=mxgraph.flowchart.terminator;whiteSpace=wrap;" parent="1" vertex="1">
          <mxGeometry x="353" y="1015" width="100" height="60" as="geometry" />
        </mxCell>
        <mxCell id="Qj9sbOqrbZrZobzI3Ule-13" value="" style="edgeStyle=orthogonalEdgeStyle;rounded=0;orthogonalLoop=1;jettySize=auto;html=1;" parent="1" source="Qj9sbOqrbZrZobzI3Ule-3" target="Qj9sbOqrbZrZobzI3Ule-7" edge="1">
          <mxGeometry relative="1" as="geometry" />
        </mxCell>
        <mxCell id="Qj9sbOqrbZrZobzI3Ule-3" value="&lt;b&gt;&lt;font style=&quot;font-size: 14px;&quot;&gt;&quot;Ingrese el tiempo en segundos&quot;&lt;/font&gt;&lt;/b&gt;" style="strokeWidth=2;html=1;shape=mxgraph.flowchart.display;whiteSpace=wrap;" parent="1" vertex="1">
          <mxGeometry x="308" y="128" width="196" height="73" as="geometry" />
        </mxCell>
        <mxCell id="Qj9sbOqrbZrZobzI3Ule-4" value="&lt;b&gt;&lt;font style=&quot;font-size: 14px;&quot;&gt;&quot;Mayor&quot;&lt;/font&gt;&lt;/b&gt;" style="strokeWidth=2;html=1;shape=mxgraph.flowchart.display;whiteSpace=wrap;" parent="1" vertex="1">
          <mxGeometry x="599.25" y="631" width="110.5" height="69" as="geometry" />
        </mxCell>
        <mxCell id="Qj9sbOqrbZrZobzI3Ule-5" value="&lt;b&gt;&lt;font style=&quot;font-size: 14px;&quot;&gt;&quot;Faltan esta cantidad de segundos para llegar a 10 minutos &quot;&lt;/font&gt;&lt;/b&gt;&lt;div&gt;&lt;b&gt;&lt;font style=&quot;font-size: 14px;&quot;&gt;segundos_falt&lt;/font&gt;&lt;/b&gt;&lt;/div&gt;" style="strokeWidth=2;html=1;shape=mxgraph.flowchart.display;whiteSpace=wrap;" parent="1" vertex="1">
          <mxGeometry x="47" y="722" width="226" height="121" as="geometry" />
        </mxCell>
        <mxCell id="Qj9sbOqrbZrZobzI3Ule-15" style="edgeStyle=orthogonalEdgeStyle;rounded=0;orthogonalLoop=1;jettySize=auto;html=1;" parent="1" source="Qj9sbOqrbZrZobzI3Ule-6" target="Qj9sbOqrbZrZobzI3Ule-10" edge="1">
          <mxGeometry relative="1" as="geometry" />
        </mxCell>
        <mxCell id="Qj9sbOqrbZrZobzI3Ule-16" style="edgeStyle=orthogonalEdgeStyle;rounded=0;orthogonalLoop=1;jettySize=auto;html=1;" parent="1" source="Qj9sbOqrbZrZobzI3Ule-6" target="Qj9sbOqrbZrZobzI3Ule-11" edge="1">
          <mxGeometry relative="1" as="geometry" />
        </mxCell>
        <mxCell id="Qj9sbOqrbZrZobzI3Ule-6" value="&lt;b&gt;&lt;font style=&quot;font-size: 14px;&quot;&gt;tiempo_segundos &amp;lt; 600&lt;/font&gt;&lt;/b&gt;" style="strokeWidth=2;html=1;shape=mxgraph.flowchart.decision;whiteSpace=wrap;" parent="1" vertex="1">
          <mxGeometry x="301" y="382" width="194" height="153" as="geometry" />
        </mxCell>
        <mxCell id="Qj9sbOqrbZrZobzI3Ule-14" value="" style="edgeStyle=orthogonalEdgeStyle;rounded=0;orthogonalLoop=1;jettySize=auto;html=1;" parent="1" source="Qj9sbOqrbZrZobzI3Ule-7" target="Qj9sbOqrbZrZobzI3Ule-6" edge="1">
          <mxGeometry relative="1" as="geometry" />
        </mxCell>
        <mxCell id="Qj9sbOqrbZrZobzI3Ule-7" value="&lt;b&gt;&lt;font style=&quot;font-size: 14px;&quot;&gt;tiempo_segundos&lt;/font&gt;&lt;/b&gt;" style="shape=parallelogram;html=1;strokeWidth=2;perimeter=parallelogramPerimeter;whiteSpace=wrap;rounded=1;arcSize=12;size=0.23;" parent="1" vertex="1">
          <mxGeometry x="314.5" y="241" width="169" height="91" as="geometry" />
        </mxCell>
        <mxCell id="Qj9sbOqrbZrZobzI3Ule-8" value="segundos_falt = 600 - tiempos_segundos" style="rounded=0;whiteSpace=wrap;html=1;fontStyle=1;fontSize=14;" parent="1" vertex="1">
          <mxGeometry x="9" y="587" width="289" height="70" as="geometry" />
        </mxCell>
        <mxCell id="Qj9sbOqrbZrZobzI3Ule-10" value="&lt;b&gt;&lt;font style=&quot;font-size: 14px;&quot;&gt;Verdadero&lt;/font&gt;&lt;/b&gt;" style="text;html=1;align=center;verticalAlign=middle;resizable=0;points=[];autosize=1;strokeColor=none;fillColor=none;" parent="1" vertex="1">
          <mxGeometry x="97" y="445" width="86" height="29" as="geometry" />
        </mxCell>
        <mxCell id="Qj9sbOqrbZrZobzI3Ule-11" value="&lt;b&gt;&lt;font style=&quot;font-size: 14px;&quot;&gt;Falso&lt;/font&gt;&lt;/b&gt;" style="text;html=1;align=center;verticalAlign=middle;resizable=0;points=[];autosize=1;strokeColor=none;fillColor=none;" parent="1" vertex="1">
          <mxGeometry x="627" y="445" width="55" height="29" as="geometry" />
        </mxCell>
        <mxCell id="Qj9sbOqrbZrZobzI3Ule-17" style="edgeStyle=orthogonalEdgeStyle;rounded=0;orthogonalLoop=1;jettySize=auto;html=1;entryX=0.453;entryY=0.002;entryDx=0;entryDy=0;entryPerimeter=0;" parent="1" source="Qj9sbOqrbZrZobzI3Ule-10" target="Qj9sbOqrbZrZobzI3Ule-8" edge="1">
          <mxGeometry relative="1" as="geometry" />
        </mxCell>
        <mxCell id="Qj9sbOqrbZrZobzI3Ule-18" style="edgeStyle=orthogonalEdgeStyle;rounded=0;orthogonalLoop=1;jettySize=auto;html=1;entryX=0.5;entryY=0;entryDx=0;entryDy=0;entryPerimeter=0;" parent="1" source="Qj9sbOqrbZrZobzI3Ule-11" target="Qj9sbOqrbZrZobzI3Ule-4" edge="1">
          <mxGeometry relative="1" as="geometry" />
        </mxCell>
        <mxCell id="Qj9sbOqrbZrZobzI3Ule-19" style="edgeStyle=orthogonalEdgeStyle;rounded=0;orthogonalLoop=1;jettySize=auto;html=1;entryX=0.5;entryY=0;entryDx=0;entryDy=0;entryPerimeter=0;" parent="1" source="Qj9sbOqrbZrZobzI3Ule-8" target="Qj9sbOqrbZrZobzI3Ule-5" edge="1">
          <mxGeometry relative="1" as="geometry" />
        </mxCell>
        <mxCell id="Qj9sbOqrbZrZobzI3Ule-21" style="edgeStyle=orthogonalEdgeStyle;rounded=0;orthogonalLoop=1;jettySize=auto;html=1;entryX=0.5;entryY=0;entryDx=0;entryDy=0;entryPerimeter=0;" parent="1" source="Qj9sbOqrbZrZobzI3Ule-5" target="Qj9sbOqrbZrZobzI3Ule-2" edge="1">
          <mxGeometry relative="1" as="geometry">
            <Array as="points">
              <mxPoint x="172" y="965" />
            </Array>
          </mxGeometry>
        </mxCell>
        <mxCell id="Qj9sbOqrbZrZobzI3Ule-23" style="edgeStyle=orthogonalEdgeStyle;rounded=0;orthogonalLoop=1;jettySize=auto;html=1;entryX=0.5;entryY=0;entryDx=0;entryDy=0;entryPerimeter=0;" parent="1" source="Qj9sbOqrbZrZobzI3Ule-4" target="Qj9sbOqrbZrZobzI3Ule-2" edge="1">
          <mxGeometry relative="1" as="geometry">
            <Array as="points">
              <mxPoint x="655" y="743" />
              <mxPoint x="403" y="743" />
            </Array>
          </mxGeometry>
        </mxCell>
      </root>
    </mxGraphModel>
  </diagram>
</mxfile>
